#tb 0: 1/8000
0,          0,          0,      240,      480, 0x4dce9773
0,        240,        240,      240,      480, 0xe6367ab8
0,        480,        480,      240,      480, 0xf36a589d
0,        720,        720,      240,      480, 0xf94efd31
0,        960,        960,      240,      480, 0x984e6d33
0,       1200,       1200,      240,      480, 0x84eaa191
0,       1440,       1440,      240,      480, 0xed6e0c10
0,       1680,       1680,      240,      480, 0x3627e7a0
0,       1920,       1920,      240,      480, 0x2421b42d
0,       2160,       2160,      240,      480, 0x71e00d6f
0,       2400,       2400,      240,      480, 0xd49cdb95
0,       2640,       2640,      240,      480, 0xa167e890
0,       2880,       2880,      240,      480, 0xbb3fd7c0
0,       3120,       3120,      240,      480, 0xa3d5bc27
0,       3360,       3360,      240,      480, 0x8107ca9c
0,       3600,       3600,      240,      480, 0xcd4ce998
0,       3840,       3840,      240,      480, 0x14e3ee73
0,       4080,       4080,      240,      480, 0x5fc3eaf0
0,       4320,       4320,      240,      480, 0xf166f33d
0,       4560,       4560,      240,      480, 0xe8b3f701
0,       4800,       4800,      240,      480, 0x50aaeafd
0,       5040,       5040,      240,      480, 0xc7f2daec
0,       5280,       5280,      240,      480, 0x3960e5d0
0,       5520,       5520,      240,      480, 0xadc8ec32
0,       5760,       5760,      240,      480, 0x8741e7b0
0,       6000,       6000,      240,      480, 0x1a1bd910
0,       6240,       6240,      240,      480, 0x76a4ef7f
0,       6480,       6480,      240,      480, 0x19e6e5f5
0,       6720,       6720,      240,      480, 0x6365e871
0,       6960,       6960,      240,      480, 0xb2bee161
0,       7200,       7200,      240,      480, 0x5098cba4
0,       7440,       7440,      240,      480, 0x1009c4c5
0,       7680,       7680,      240,      480, 0xbf20cfe3
0,       7920,       7920,      240,      480, 0x91ddd028
0,       8160,       8160,      240,      480, 0x4fedce37
0,       8400,       8400,      240,      480, 0x43bcd4d8
0,       8640,       8640,      240,      480, 0x41b3e782
0,       8880,       8880,      240,      480, 0xa272f4a6
0,       9120,       9120,      240,      480, 0x46b2f2cb
0,       9360,       9360,      240,      480, 0xc47dee7d
0,       9600,       9600,      240,      480, 0x699fe668
0,       9840,       9840,      240,      480, 0x72b5daf8
0,      10080,      10080,      240,      480, 0x0c0cf25e
0,      10320,      10320,      240,      480, 0xdafff519
0,      10560,      10560,      240,      480, 0xf1f2e42f
0,      10800,      10800,      240,      480, 0xe04fe7f4
0,      11040,      11040,      240,      480, 0x1157d789
0,      11280,      11280,      240,      480, 0xe598ede6
0,      11520,      11520,      240,      480, 0xbd06dc2f
0,      11760,      11760,      240,      480, 0x2aa6d2d9
0,      12000,      12000,      240,      480, 0xa61ff1a3
0,      12240,      12240,      240,      480, 0x6f57eb35
0,      12480,      12480,      240,      480, 0x68c1f4a9
0,      12720,      12720,      240,      480, 0x5c0ae6f2
0,      12960,      12960,      240,      480, 0xdffbef45
0,      13200,      13200,      240,      480, 0xf0daf893
0,      13440,      13440,      240,      480, 0x680cf0c4
0,      13680,      13680,      240,      480, 0xbbc1d42f
0,      13920,      13920,      240,      480, 0x9b66eddd
0,      14160,      14160,      240,      480, 0xc18be7a3
0,      14400,      14400,      240,      480, 0x1deae025
0,      14640,      14640,      240,      480, 0x6c12e002
0,      14880,      14880,      240,      480, 0x004bf27e
0,      15120,      15120,      240,      480, 0xc97de444
0,      15360,      15360,      240,      480, 0xc650de6b
0,      15600,      15600,      240,      480, 0xe614ecd6
0,      15840,      15840,      240,      480, 0x2c20d111
0,      16080,      16080,      240,      480, 0x8562c091
0,      16320,      16320,      240,      480, 0x4fcddd08
0,      16560,      16560,      240,      480, 0xc1b2c3cb
0,      16800,      16800,      240,      480, 0x5dcfdf24
0,      17040,      17040,      240,      480, 0xf348d7be
0,      17280,      17280,      240,      480, 0x31b3ead7
0,      17520,      17520,      240,      480, 0xb30dee68
0,      17760,      17760,      240,      480, 0x1f44e9ac
0,      18000,      18000,      240,      480, 0x3cafe61e
0,      18240,      18240,      240,      480, 0x5800ea95
0,      18480,      18480,      240,      480, 0xeaeeec19
0,      18720,      18720,      240,      480, 0x47f9eff3
0,      18960,      18960,      240,      480, 0xdc10edf1
0,      19200,      19200,      240,      480, 0x5b1bd3ff
0,      19440,      19440,      240,      480, 0x039bea64
0,      19680,      19680,      240,      480, 0xa93ac953
0,      19920,      19920,      240,      480, 0x1b55f01c
0,      20160,      20160,      240,      480, 0x32b7db90
0,      20400,      20400,      240,      480, 0x2f8ce0a8
0,      20640,      20640,      240,      480, 0x53f4f7d5
0,      20880,      20880,      240,      480, 0x880ee517
0,      21120,      21120,      240,      480, 0xe793f2fd
0,      21360,      21360,      240,      480, 0x498beaf5
0,      21600,      21600,      240,      480, 0x8c25f623
0,      21840,      21840,      240,      480, 0xdc0df527
0,      22080,      22080,      240,      480, 0x9d21e9b4
0,      22320,      22320,      240,      480, 0x6d51d9e6
0,      22560,      22560,      240,      480, 0xaf3ee6ba
0,      22800,      22800,      240,      480, 0xbef0ea44
0,      23040,      23040,      240,      480, 0x50c6e9ab
0,      23280,      23280,      240,      480, 0x76a7d80c
0,      23520,      23520,      240,      480, 0x8d68ef94
0,      23760,      23760,      240,      480, 0x213ce600
